<svg xmlns="http://www.w3.org/2000/svg" xmlns:xlink="http://www.w3.org/1999/xlink" viewBox="0 0 417.7 394.3"><defs><style>.cls-1{fill:url(#铃琨眄_沭噤桢眚_225);}</style><linearGradient id="铃琨眄_沭噤桢眚_225" y1="197.15" x2="417.7" y2="197.15" gradientUnits="userSpaceOnUse"><stop offset="0" stop-color="#cb88d2"/><stop offset="0.27" stop-color="#c887d3"/><stop offset="0.48" stop-color="#be85d7"/><stop offset="0.67" stop-color="#ad81dd"/><stop offset="0.85" stop-color="#967be6"/><stop offset="1" stop-color="#7c75f0"/></linearGradient></defs><title>资源 1</title><g id="图层_2" data-name="图层 2"><g id="layer_1" data-name="layer 1"><path class="cls-1" d="M401.45,157.46c5.64,17.76,11.17,37.4,14.11,57.17a181.2,181.2,0,0,1,2.12,29.53c-.77,26.69-6.59,53-29.88,71.77-72.76,57.59-180.44,98.9-275,67.6a101,101,0,0,1-27.45-12.85,106.49,106.49,0,0,1-20.94-18.61C53.83,333.34,40.82,313.91,29.07,294c-5.87-10-11.43-20.1-16.2-30.32C-10.92,223.28-2.19,175.7,42.92,146.91c58.21-37.56,99-80.13,149.89-120.19C229.19-2.08,278.66-5.83,322.94,7.06a148,148,0,0,1,37.21,17.16A73.71,73.71,0,0,1,381,42.92a77.79,77.79,0,0,1,11.73,22.92c5.25,16,6.7,33.49,7.42,51.4C400.92,130,401.26,143.43,401.45,157.46Z"/></g></g></svg>