<?xml version="1.0" encoding="utf-8"?>
<!-- Generator: Adobe Illustrator 22.1.0, SVG Export Plug-In . SVG Version: 6.00 Build 0)  -->
<svg version="1.1" id="图层_1" xmlns="http://www.w3.org/2000/svg" xmlns:xlink="http://www.w3.org/1999/xlink" x="0px" y="0px"
	 viewBox="0 0 645.6 497.3" style="enable-background:new 0 0 645.6 497.3;" xml:space="preserve">
<style type="text/css">
	.st0{clip-path:url(#SVGID_2_);}
	.st1{fill:url(#SVGID_3_);}
	.st2{fill:url(#SVGID_4_);}
	.st3{fill:url(#SVGID_5_);}
	.st4{fill:url(#SVGID_6_);}
	.st5{fill:url(#SVGID_7_);}
</style>
<g id="图层_2_1_">
	<g id="Bg">
		<g>
			<defs>
				<rect id="SVGID_1_" width="645.6" height="497.3"/>
			</defs>
			<clipPath id="SVGID_2_">
				<use xlink:href="#SVGID_1_"  style="overflow:visible;"/>
			</clipPath>
			<g class="st0">
				
					<linearGradient id="SVGID_3_" gradientUnits="userSpaceOnUse" x1="145.1716" y1="564.3521" x2="-88.3666" y2="363.5511" gradientTransform="matrix(1 0 0 -1 0 500)">
					<stop  offset="0" style="stop-color:#D77EDB"/>
					<stop  offset="0.16" style="stop-color:#D27BDC"/>
					<stop  offset="0.36" style="stop-color:#C273DD"/>
					<stop  offset="0.57" style="stop-color:#A965E0"/>
					<stop  offset="0.8" style="stop-color:#8653E5"/>
					<stop  offset="1" style="stop-color:#623FE9"/>
				</linearGradient>
				<path class="st1" d="M180.8,12.9c0,77.8-60.5,164.4-135.1,164.4S-120.3,90.6-120.3,12.9S-29-89.5,45.6-89.5
					S180.8-64.9,180.8,12.9z"/>
				
					<linearGradient id="SVGID_4_" gradientUnits="userSpaceOnUse" x1="475.3355" y1="535.8458" x2="414.4481" y2="483.5031" gradientTransform="matrix(1 0 0 -1 0 500)">
					<stop  offset="0" style="stop-color:#D77EDB"/>
					<stop  offset="0.16" style="stop-color:#D27BDC"/>
					<stop  offset="0.36" style="stop-color:#C273DD"/>
					<stop  offset="0.57" style="stop-color:#A965E0"/>
					<stop  offset="0.8" style="stop-color:#8653E5"/>
					<stop  offset="1" style="stop-color:#623FE9"/>
				</linearGradient>
				<path class="st2" d="M484.6-15.7c0,20.3-15.8,42.9-35.2,42.9s-43.3-22.6-43.3-42.9s23.8-26.7,43.3-26.7S484.6-36,484.6-15.7z"/>
				
					<linearGradient id="SVGID_5_" gradientUnits="userSpaceOnUse" x1="403.5797" y1="36.4015" x2="326.6636" y2="-29.7419" gradientTransform="matrix(1 0 0 -1 0 500)">
					<stop  offset="0" style="stop-color:#D77EDB"/>
					<stop  offset="0.16" style="stop-color:#D27BDC"/>
					<stop  offset="0.36" style="stop-color:#C273DD"/>
					<stop  offset="0.57" style="stop-color:#A965E0"/>
					<stop  offset="0.8" style="stop-color:#8653E5"/>
					<stop  offset="1" style="stop-color:#623FE9"/>
				</linearGradient>
				<path class="st3" d="M415.3,489c0,25.6-19.9,54.1-44.5,54.1c-24.6,0-54.6-28.5-54.6-54.1c0-25.6,30.1-33.7,54.6-33.7
					S415.3,463.4,415.3,489z"/>
				
					<linearGradient id="SVGID_6_" gradientUnits="userSpaceOnUse" x1="689.4354" y1="516.54" x2="517.7569" y2="368.9233" gradientTransform="matrix(1 0 0 -1 0 500)">
					<stop  offset="0" style="stop-color:#623FE9"/>
					<stop  offset="1" style="stop-color:#5DDAF4"/>
				</linearGradient>
				<path class="st4" d="M713.4,39c0,59.8-46.5,126.3-103.8,126.3c-57.3,0-103.8-66.5-103.8-126.3s46.5-78.7,103.8-78.7
					C666.9-39.7,713.4-20.8,713.4,39z"/>
				
					<linearGradient id="SVGID_7_" gradientUnits="userSpaceOnUse" x1="96.0428" y1="18.4535" x2="3.2913" y2="-61.2881" gradientTransform="matrix(1 0 0 -1 0 500)">
					<stop  offset="0" style="stop-color:#623FE9"/>
					<stop  offset="1" style="stop-color:#5DDAF4"/>
				</linearGradient>
				<path class="st5" d="M109,511.5c0,32.3-25.1,68.2-56.1,68.2s-56.1-35.9-56.1-68.2c0-32.3,25.1-42.5,56.1-42.5
					S109,479.2,109,511.5z"/>
			</g>
		</g>
	</g>
</g>
</svg>
