<?xml version="1.0" encoding="utf-8"?>
<!-- Generator: Adobe Illustrator 22.1.0, SVG Export Plug-In . SVG Version: 6.00 Build 0)  -->
<svg version="1.1" id="图层_1" xmlns="http://www.w3.org/2000/svg" xmlns:xlink="http://www.w3.org/1999/xlink" x="0px" y="0px"
	 viewBox="0 0 645.6 497.3" style="enable-background:new 0 0 645.6 497.3;" xml:space="preserve">
<style type="text/css">
	.st0{clip-path:url(#SVGID_2_);}
	.st1{fill:url(#SVGID_3_);}
	.st2{fill:url(#SVGID_4_);}
	.st3{fill:url(#SVGID_5_);}
	.st4{fill:url(#SVGID_6_);}
	.st5{fill:url(#SVGID_7_);}
</style>
<title>资源 6</title>
<g id="图层_2_1_">
	<g id="Bg">
		<g>
			<g>
				<defs>
					<rect id="SVGID_1_" x="93.2" y="66.5" width="500" height="369.5"/>
				</defs>
				<clipPath id="SVGID_2_">
					<use xlink:href="#SVGID_1_"  style="overflow:visible;"/>
				</clipPath>
				<g class="st0">
					
						<linearGradient id="SVGID_3_" gradientUnits="userSpaceOnUse" x1="136.074" y1="344.65" x2="56.7644" y2="412.8421" gradientTransform="matrix(1 0 0 1 0 -292)">
						<stop  offset="0" style="stop-color:#D77EDB"/>
						<stop  offset="0.16" style="stop-color:#D27BDC"/>
						<stop  offset="0.36" style="stop-color:#C273DD"/>
						<stop  offset="0.57" style="stop-color:#A965E0"/>
						<stop  offset="0.8" style="stop-color:#8653E5"/>
						<stop  offset="1" style="stop-color:#623FE9"/>
					</linearGradient>
					<path class="st1" d="M149,79.2c0,25.7-20.9,54.4-46.6,54.4s-57.2-28.6-57.2-54.4s31.5-33.9,57.2-33.9S149,53.4,149,79.2z"/>
					
						<linearGradient id="SVGID_4_" gradientUnits="userSpaceOnUse" x1="427.5221" y1="352.3555" x2="414.2731" y2="363.7452" gradientTransform="matrix(1 0 0 1 0 -292)">
						<stop  offset="0" style="stop-color:#D77EDB"/>
						<stop  offset="0.16" style="stop-color:#D27BDC"/>
						<stop  offset="0.36" style="stop-color:#C273DD"/>
						<stop  offset="0.57" style="stop-color:#A965E0"/>
						<stop  offset="0.8" style="stop-color:#8653E5"/>
						<stop  offset="1" style="stop-color:#623FE9"/>
					</linearGradient>
					<path class="st2" d="M429.7,64.8c0,4.3-3.5,9.1-7.8,9.1s-9.5-4.8-9.5-9.1s5.3-5.7,9.5-5.7C426.2,59.1,429.7,60.5,429.7,64.8z"
						/>
					
						<linearGradient id="SVGID_5_" gradientUnits="userSpaceOnUse" x1="371.8936" y1="716.3665" x2="346.8248" y2="737.9242" gradientTransform="matrix(1 0 0 1 0 -292)">
						<stop  offset="0" style="stop-color:#D77EDB"/>
						<stop  offset="0.16" style="stop-color:#D27BDC"/>
						<stop  offset="0.36" style="stop-color:#C273DD"/>
						<stop  offset="0.57" style="stop-color:#A965E0"/>
						<stop  offset="0.8" style="stop-color:#8653E5"/>
						<stop  offset="1" style="stop-color:#623FE9"/>
					</linearGradient>
					<path class="st3" d="M376,432.8c0,8.1-6.6,17.2-14.7,17.2c-8.1,0-18.1-9-18.1-17.2s10-10.7,18.1-10.7
						C369.4,422,376,424.6,376,432.8z"/>
					
						<linearGradient id="SVGID_6_" gradientUnits="userSpaceOnUse" x1="608.139" y1="351.2685" x2="562.5753" y2="390.4462" gradientTransform="matrix(1 0 0 1 0 -292)">
						<stop  offset="0" style="stop-color:#623FE9"/>
						<stop  offset="1" style="stop-color:#5DDAF4"/>
					</linearGradient>
					<path class="st4" d="M615,74.2c0,15.5-12.5,32.7-28,32.7s-28-17.3-28-32.7s12.5-20.4,28-20.4C602.5,53.8,615,58.7,615,74.2z"/>
					
						<linearGradient id="SVGID_7_" gradientUnits="userSpaceOnUse" x1="113.4914" y1="723.3369" x2="103.4416" y2="731.9771" gradientTransform="matrix(1 0 0 1 0 -292)">
						<stop  offset="0" style="stop-color:#623FE9"/>
						<stop  offset="1" style="stop-color:#5DDAF4"/>
					</linearGradient>
					<path class="st5" d="M115,434.6c0,3.4-2.8,7.2-6.2,7.2s-6.2-3.8-6.2-7.2c0-3.4,2.8-4.5,6.2-4.5S115,431.2,115,434.6z"/>
				</g>
			</g>
		</g>
	</g>
</g>
</svg>
