<?xml version="1.0" encoding="utf-8"?>
<!-- Generator: Adobe Illustrator 22.1.0, SVG Export Plug-In . SVG Version: 6.00 Build 0)  -->
<svg version="1.1" id="layer_1" xmlns="http://www.w3.org/2000/svg" xmlns:xlink="http://www.w3.org/1999/xlink" x="0px" y="0px"
	 viewBox="0 0 900 600" style="enable-background:new 0 0 900 600;" xml:space="preserve">
<style type="text/css">
	.st0{clip-path:url(#SVGID_2_);fill:url(#SVGID_3_);}
	.st1{clip-path:url(#SVGID_2_);}
	.st2{fill:#FFFFFF;}
	.st3{fill:#4FB7EF;}
	.st4{fill:#E8EAFF;}
	.st5{fill:#372665;}
	.st6{fill:#566CD3;}
	.st7{fill:#E8E5ED;}
	.st8{fill:#F0F3FC;}
	.st9{fill:#F9F2FC;}
	.st10{fill:#DAAEE5;}
	.st11{fill:#8149E0;}
	.st12{fill:#D3D3D3;}
	.st13{fill:#121F55;}
</style>
<g>
	<defs>
		<rect id="SVGID_1_" width="900" height="600"/>
	</defs>
	<clipPath id="SVGID_2_">
		<use xlink:href="#SVGID_1_"  style="overflow:visible;"/>
	</clipPath>
	<linearGradient id="SVGID_3_" gradientUnits="userSpaceOnUse" x1="397.5771" y1="315.142" x2="815.28" y2="315.142">
		<stop  offset="0" style="stop-color:#CB88D2"/>
		<stop  offset="0.2669" style="stop-color:#C887D3"/>
		<stop  offset="0.4783" style="stop-color:#BE85D7"/>
		<stop  offset="0.6705" style="stop-color:#AD81DD"/>
		<stop  offset="0.8502" style="stop-color:#967BE6"/>
		<stop  offset="1" style="stop-color:#7C75F0"/>
	</linearGradient>
	<path class="st0" d="M799,275.4c5.6,17.8,11.2,37.4,14.1,57.2c1.5,9.9,2.3,19.8,2.1,29.5c-0.8,26.7-6.6,53-29.9,71.8
		c-72.8,57.6-180.4,98.9-275,67.6c-10.4-3.1-19.5-7.5-27.5-12.9c-8-5.3-14.9-11.6-20.9-18.6c-10.5-18.7-23.6-38.2-35.3-58.1
		c-5.9-10-11.4-20.1-16.2-30.3c-23.8-40.4-15.1-87.9,30.1-116.7c58.2-37.6,99-80.1,149.9-120.2c36.4-28.8,85.9-32.6,130.1-19.7
		c13,4,25.6,9.6,37.2,17.2c8.7,5.3,15.6,11.7,20.9,18.7c5.3,7,9.1,14.8,11.7,22.9c5.2,16,6.7,33.5,7.4,51.4
		C798.5,248,798.8,261.4,799,275.4z"/>
	<g class="st1">
		<g>
			<g>
				<rect x="434.3" y="355.4" class="st2" width="132.3" height="116.4"/>
			</g>
			<g>
				<path class="st3" d="M566.6,355.4H434.3V344c0-2.2,1.8-4,4-4h124.4c2.2,0,4,1.8,4,4V355.4z"/>
			</g>
			<g>
				<g>
					<path class="st2" d="M444.3,347.7c0,1.2-1,2.2-2.2,2.2c-1.2,0-2.2-1-2.2-2.2c0-1.2,1-2.3,2.2-2.3
						C443.2,345.5,444.3,346.5,444.3,347.7z"/>
				</g>
				<g>
					<path class="st2" d="M454.3,347.7c0,1.2-1,2.2-2.3,2.2c-1.2,0-2.2-1-2.2-2.2c0-1.2,1-2.3,2.2-2.3
						C453.3,345.5,454.3,346.5,454.3,347.7z"/>
				</g>
				<g>
					<path class="st2" d="M464.4,347.7c0,1.2-1,2.2-2.2,2.2c-1.2,0-2.2-1-2.2-2.2c0-1.2,1-2.3,2.2-2.3
						C463.4,345.5,464.4,346.5,464.4,347.7z"/>
				</g>
			</g>
			<g>
				<g>
					<rect x="446.1" y="365.4" class="st4" width="108.2" height="13.2"/>
				</g>
				<g>
					<rect x="446.1" y="390.7" class="st4" width="37.8" height="13.2"/>
				</g>
				<g>
					<rect x="446.1" y="415.5" class="st4" width="108.2" height="13.2"/>
				</g>
				<g>
					<rect x="446.1" y="440.9" class="st4" width="37.8" height="13.2"/>
				</g>
			</g>
		</g>
		<g>
			<g>
				<g>
					<rect x="552.7" y="434.3" class="st5" width="83" height="27.7"/>
				</g>
				<g>
					<path class="st6" d="M675.6,462H512.9c-5.5,0-10,4.5-10,10l0,0h182.6l0,0C685.5,466.5,681.1,462,675.6,462z"/>
				</g>
				<g>
					<path class="st6" d="M710.4,434.3H478.1c-6.9,0-12.4-5.6-12.4-12.4V247.6c0-6.9,5.6-12.4,12.4-12.4h232.4
						c6.9,0,12.4,5.6,12.4,12.4v174.3C722.9,428.8,717.3,434.3,710.4,434.3z"/>
				</g>
				<g>
					<path class="st5" d="M722.9,409.4H465.6V247.6c0-6.9,5.6-12.4,12.4-12.4h232.4c6.9,0,12.4,5.6,12.4,12.4V409.4z"/>
				</g>
				<g>
					<rect x="478.1" y="247.6" class="st2" width="232.4" height="149.4"/>
				</g>
			</g>
			<g>
				<g>
					<rect x="478.1" y="247.6" class="st7" width="232.4" height="24.9"/>
				</g>
				<g>
					<rect x="490.5" y="285" class="st8" width="207.5" height="24.9"/>
				</g>
				<g>
					<g>
						<rect x="490.5" y="322.3" class="st9" width="207.5" height="8.3"/>
					</g>
					<g>
						<rect x="490.5" y="343" class="st9" width="207.5" height="8.3"/>
					</g>
					<g>
						<rect x="490.5" y="363.8" class="st9" width="207.5" height="8.3"/>
					</g>
				</g>
				<g>
					<g>
						<circle class="st10" cx="490.5" cy="260.1" r="4.1"/>
					</g>
					<g>
						<circle class="st10" cx="507.9" cy="260.1" r="4.1"/>
					</g>
					<g>
						<circle class="st10" cx="525.4" cy="260.1" r="4.1"/>
					</g>
				</g>
			</g>
		</g>
		<g>
			<g>
				<g>
					<path class="st5" d="M529.8,344.6c3,0,5.4-3.9,5.4-8.6c0-4.8-2.5-8.6-5.4-8.6c-3,0-5.4,3.9-5.4,8.6
						C524.4,340.8,526.9,344.6,529.8,344.6z"/>
				</g>
				<g>
					<path class="st5" d="M503.6,348.7c3.5-2,7.3-7,5.9-11.4c-3.4-10.3,4.6-14,8.6-14.8c4-0.8,7.5,0.3,9.7,2
						c3.6,2.9,2.5,7.8,0.5,11.8c2.2,1.3,3.2,3.9,2,6c-2.7,4.4-0.4,10.3,1.2,13.8c2.6,5.6-1,12.6-7.4,15.8c-6.3,3.2-14.6,2.8-21,0
						c-3.2-1.4-6-3.5-7.5-6.2C492.5,359.7,497,352.4,503.6,348.7z"/>
				</g>
				<g>
					<path class="st7" d="M547.2,388.1c1.5,0.2,3.1,0.3,4.8,0.4c1.2,0,2.2-0.9,2.3-2.1c0-1.2-0.9-2.2-2.1-2.3
						c-7.7-0.2-13.5-2.5-17.2-6.8c-5.6-6.5-4.6-15.7-4.5-15.7c0.2-1.2-0.7-2.3-1.9-2.5c-1.2-0.2-2.3,0.7-2.5,1.9
						c-0.1,0.5-1.3,11.2,5.6,19.2C535.2,384.5,540.5,387.1,547.2,388.1z"/>
				</g>
				<g>
					<path class="st3" d="M528.7,357.5c2.1,0.3,3.5,2.2,3.3,4.3c0,0.1-0.9,8.5,4.2,14.5c2.5,2.9,6.1,4.8,10.8,5.7
						c-1.3,2.3-1.6,5.3-0.5,7.7c-6.8-1.1-12.3-3.9-16.1-8.4c-7.3-8.6-6-19.9-5.9-20.4C524.6,358.7,526.5,357.2,528.7,357.5z"/>
				</g>
				<g>
					<path class="st7" d="M528.1,361.3c1.1-0.6,2-2.3,0.7-3.9c-1.3-1.5-3.4-2.4-5.6-2.5l-0.6,0c-2-0.1-3.7,0.8-4.9,2.2
						C518.6,359.9,525,362.4,528.1,361.3z"/>
				</g>
				<g>
					<path class="st7" d="M524.3,350.5l0.1,2.5l0.1,4.7l-3.6,0.1l-0.1-6l0-2.3C521.8,350.1,523,350.5,524.3,350.5z"/>
				</g>
				<g>
					<path class="st7" d="M524.3,351.1l0.1,2.5c-1.3-0.2-2.8-0.8-3.6-1.7l0-1.9C521.8,350.7,523,351.1,524.3,351.1z"/>
				</g>
				<g>
					<path class="st7" d="M523.4,352.3L523.4,352.3c-3.4,0-6.4-1.7-8.3-4.2c-1.3-1.8-2.1-3.9-2-6.3l0-4.1c0-3,1.3-5.7,3.3-7.5
						c1.9-1.8,4.4-2.8,7.2-2.8l0,0c1.8,0,3.6,0.5,5.1,1.4c3.2,1.8,5.3,5.3,5.3,9.2l0,4.1c0,3.8-2.1,7.1-5.1,8.9
						C527.3,351.8,525.4,352.4,523.4,352.3z"/>
				</g>
				<g>
					<path class="st11" d="M531.4,386.3c1.2,5.3-2.1,10.6-7.5,11.9c-5.3,1.2-10.6-2.1-11.9-7.5c-1.2-5.3,2.1-10.6,7.5-11.9
						C524.9,377.6,530.2,381,531.4,386.3z"/>
				</g>
				<g>
					<path class="st5" d="M524.1,346.9c0.2,1.3,1.4,2.3,2.7,2.3c1.4,0,2.5-1,2.8-2.2L524.1,346.9z"/>
				</g>
				<g>
					<path class="st3" d="M533.3,362.9c0.7,1.9-1.2,3.8-3.2,4c-2,0.2-3.8-1.2-4-3.2c-0.2-2,2.7-6.3,3.8-4.7
						C531.1,360.6,532.8,361.3,533.3,362.9z"/>
				</g>
				<g>
					<path class="st3" d="M517.7,357c-0.9,1-1.4,2.3-1.5,3.7c0,0,0.9,16.3-3.6,23.8l19,1.6l-0.5-22.5c0.1-2.4-0.8-4.6-2.4-6.2
						C528.7,361,521.2,356.7,517.7,357z"/>
				</g>
				<g>
					<path class="st3" d="M526.7,434.3c-0.2,2.3-0.7,4.1-0.9,4.7c-0.1,0.2,0,0.4,0.2,0.5l0,0c0.2,0.1,0.4,0,0.4-0.2
						c0.2-0.5,0.8-1.9,1-2.4c0.3-0.7,1-2,1.9,0.3c0.9,2.3,0.5,4.4,0.6,7.1c0.1,3.7,4.7,4.9,5.4,5.2c1.9,0.7,3.8,0.1,3.1-2
						c-0.8-2.4-1.9-3-3-6c-1.6-4.3-1.3-7-2.2-9.6c-0.1-0.5-1-2.1-2.8-2.2C528.9,429.6,526.9,431.5,526.7,434.3z"/>
				</g>
				<g>
					<path class="st7" d="M532.3,442.4c-1-2.2-2.1-8.8-1.5-10.2c0.7-1.7,4.3-1.8,4.5-0.3c0.4,2.7-0.7,7.3,1.5,12.3
						C536.4,445.4,533.4,444.9,532.3,442.4z"/>
				</g>
				<g>
					<path class="st11" d="M518.6,397.6l23.3,10.9l-2.2-5.3l-8.6,28c-0.5,1.7,0.4,3.5,2.1,4c1.6,0.5,3.3-0.4,4-1.9l10.6-27.3
						c0.8-2-0.1-4.3-2-5.2l-0.2-0.1l-23.2-11.1c-2.2-1.1-4.8-0.1-5.9,2.1C515.5,393.9,516.4,396.5,518.6,397.6
						C518.6,397.6,518.6,397.6,518.6,397.6z"/>
				</g>
				<g>
					<path class="st3" d="M545,426.7c0.9,2.1,1.4,4,1.4,4.6c0,0.2,0.2,0.3,0.4,0.3l0,0c0.2,0,0.3-0.2,0.3-0.4c0-0.5-0.2-2.1-0.2-2.6
						c-0.1-0.8,0-2.3,1.8-0.6c1.8,1.6,2.5,3.6,3.8,6c1.8,3.2,6.4,2.1,7.2,2.1c2-0.2,3.4-1.7,1.8-3.2c-1.8-1.8-3.1-1.8-5.5-3.9
						c-3.5-3.1-4.5-5.6-6.4-7.4c-0.3-0.3-1.9-1.4-3.5-0.7C544.7,421.6,543.8,424.1,545,426.7z"/>
				</g>
				<g>
					<path class="st7" d="M553.7,431.3c-1.9-1.5-6-6.8-6.1-8.3c-0.2-1.8,2.9-3.6,3.8-2.4c1.6,2.2,2.8,6.8,7,10.2
						C558.8,432,555.9,433,553.7,431.3z"/>
				</g>
				<g>
					<path class="st11" d="M520.3,398.3L546,397l-4.4-3.6l5.4,28.8c0.3,1.7,2,2.9,3.8,2.6c1.7-0.3,2.8-1.9,2.6-3.5l-3.3-29.1
						c-0.2-2.1-2.1-3.7-4.2-3.6l-0.2,0l-25.7,1c-2.4,0.1-4.3,2.1-4.2,4.6C515.7,396.5,517.8,398.4,520.3,398.3
						C520.2,398.3,520.3,398.3,520.3,398.3z"/>
				</g>
				<g>
					<path class="st7" d="M518.4,388.5c1.1,0.2,2.3,0.3,3.6,0.4c1.2,0.1,2.3-0.8,2.3-2.1c0.1-1.2-0.9-2.3-2.1-2.3
						c-4.1-0.3-9.2-1.3-10.6-4.6c-2.1-5.2,5.1-14.7,7.8-17.6c0.8-0.9,0.8-2.3-0.1-3.1c-0.9-0.8-2.3-0.8-3.1,0.1
						c-1.2,1.4-12.1,13.5-8.6,22.2C509.1,385.2,512.7,387.5,518.4,388.5z"/>
				</g>
				<g>
					<path class="st3" d="M515.1,358.3c0.9-1,2.2-1.4,3.5-1.2c0.9,0.1,1.7,0.6,2.3,1.3c1.3,1.5,1.1,3.8-0.2,5.2
						c-3.1,3.4-9,11.7-7.4,15.8c0.3,0.7,0.9,1.3,1.6,1.7c1.4,0.8,2.1,2.4,1.8,4c0,0,0,0.1,0,0.1c-0.5,2.5-3.3,3.9-5.5,2.7
						c-2.4-1.4-4.1-3.2-5-5.6C502.4,372.8,512.9,360.6,515.1,358.3z"/>
				</g>
				<g>
					<path class="st7" d="M531.5,386.4c-0.1,1.3-0.7,2.5-1.5,3.3l-8.1-0.7c-0.7-1-1.1-2.2-1-3.5c0.2-2.9,2.8-5.1,5.7-4.9
						C529.5,380.9,531.7,383.5,531.5,386.4z"/>
				</g>
				<g>
					<path class="st7" d="M559,387.4c-0.1,1.3-0.6,2.5-1.4,3.4l-8.1-0.3c-0.7-1-1.2-2.2-1.1-3.5c0.1-2.9,2.6-5.2,5.5-5.1
						C556.8,382,559.1,384.4,559,387.4z"/>
				</g>
				<g>
					<path class="st5" d="M511.4,335.6c1.2,3.3,6.4,4.5,11.7,2.7c5.3-1.9,8.7-6.1,7.5-9.4c-1.2-3.3-6.4-4.5-11.7-2.7
						C513.6,328.1,510.2,332.3,511.4,335.6z"/>
				</g>
				<g>
					<path class="st6" d="M517,389.4c0-0.7,0.6-1.3,1.3-1.3h48.1c1,0,1.8,0.6,1.8,1.3c0,0.7-0.8,1.3-1.8,1.3h-48.1
						C517.5,390.7,517,390.2,517,389.4L517,389.4z"/>
				</g>
				<g>
					<path class="st12" d="M515.1,389.4c0,0.7,0.6,1.3,1.4,1.3h18.3c0.8,0,1.4-0.6,1.4-1.3c0-0.7-0.6-1.3-1.4-1.3h-18.3
						C515.7,388.1,515.1,388.7,515.1,389.4z"/>
				</g>
				<g>
					<path class="st12" d="M568.1,363.2v24.3c0,1.1-0.9,2-2,2h-32c-1.1,0-2-0.9-2-2v-24.3c0-1.1,0.9-2,2-2h32
						C567.3,361.2,568.1,362.1,568.1,363.2z"/>
				</g>
				<g>
					<path class="st6" d="M569.6,363.2v24.3c0,1.1-0.9,2-2,2h-32c-1.1,0-2-0.9-2-2v-24.3c0-1.1,0.9-2,2-2h32
						C568.8,361.2,569.6,362.1,569.6,363.2z"/>
				</g>
				<g>
					<path class="st12" d="M546.4,375.3L546.4,375.3c0-1.1,0.9-2.1,2.1-2.1h6.4c1.1,0,2.1,0.9,2.1,2.1l0,0c0,1.1-0.9,2.1-2.1,2.1
						h-6.4C547.3,377.4,546.4,376.5,546.4,375.3z"/>
				</g>
			</g>
			<g>
				<g>
					<path class="st11" d="M750.4,455.6c-0.8,2.8,0.8,5.7,3.6,6.4c2.8,0.8,5.7-0.8,6.4-3.6c0.8-2.8-0.8-5.7-3.6-6.4
						C754.1,451.3,751.2,452.9,750.4,455.6z"/>
				</g>
				<g>
					<path class="st11" d="M734.9,456.6l19,5.4c2,0.6,4.1-0.6,4.7-2.6l0,0c0.6-2-0.8-7.1-2.8-7.7l-19.9,0.2c-2.2,0-3.4,2.8-1.8,4.2
						C734.3,456.4,734.6,456.5,734.9,456.6z"/>
				</g>
				<g>
					<path class="st12" d="M749.3,454.2L749.3,454.2c0.6,0,0.9-0.5,0.8-1.1l-0.5-2c-0.1-0.4-0.5-0.7-0.9-0.7l0,0
						c-0.5,0-0.9,0.5-0.8,1.1l0.5,2C748.6,453.9,748.9,454.2,749.3,454.2z"/>
				</g>
				<g>
					<path class="st12" d="M746.5,454.3L746.5,454.3c0.5,0,0.9-0.5,0.8-1.1l-0.5-2c-0.1-0.4-0.5-0.7-0.9-0.7l0,0
						c-0.6,0-0.9,0.5-0.8,1.1l0.5,2C745.7,454,746.1,454.3,746.5,454.3z"/>
				</g>
				<g>
					<path class="st5" d="M761.1,420.1l0.1-0.1l28.5-16.8l8.5,9.2l-29.9,15.9l-7,30.5l-0.2,0l-8-7.3l5.4-28
						C758.8,422.2,759.7,420.9,761.1,420.1z"/>
				</g>
				<g>
					<path class="st11" d="M818.5,466.9c0,2.6,2.1,4.7,4.7,4.7c2.6,0,4.7-2.1,4.7-4.7c0-2.6-2.1-4.7-4.7-4.7
						C820.6,462.2,818.5,464.3,818.5,466.9z"/>
				</g>
				<g>
					<path class="st11" d="M805.3,471.7l17.8,0c1.9,0,3.4-1.5,3.4-3.4l0,0c0-1.9-2.5-6-4.3-6l-17.2,5.1c-1.9,0.6-2.2,3.2-0.5,4.1
						C804.8,471.6,805.1,471.7,805.3,471.7z"/>
				</g>
				<g>
					<path class="st12" d="M817.3,465.9L817.3,465.9c0.5-0.2,0.7-0.7,0.4-1.1l-0.9-1.6c-0.2-0.3-0.6-0.5-0.9-0.4l0,0
						c-0.5,0.2-0.7,0.7-0.4,1.1l0.9,1.6C816.5,465.9,816.9,466.1,817.3,465.9z"/>
				</g>
				<g>
					<path class="st12" d="M814.8,466.7L814.8,466.7c0.5-0.2,0.7-0.7,0.4-1.1l-0.9-1.6c-0.2-0.3-0.6-0.5-0.9-0.4l0,0
						c-0.5,0.2-0.7,0.7-0.4,1.1l0.9,1.6C814.1,466.7,814.5,466.9,814.8,466.7z"/>
				</g>
				<g>
					<path class="st5" d="M785.6,399.1l18.9-2.1c1.2,1.3,2.6,5.5,3,7.3c0.7,3,0.1,5.9-1.4,8.3c-1.5,2.4-3.9,4.2-6.9,4.9
						c-1.4,0.3-8.6,0.4-12-2.8C782.3,409.8,785.6,399.1,785.6,399.1z"/>
				</g>
				<g>
					<path class="st5" d="M797.4,409.2h12.2l-4.7,28.9l20.5,23.9l-10.7,3l-19.6-22c-1-1.1-1.5-2.6-1.2-4.1L797.4,409.2z"/>
				</g>
				<g>
					<path class="st3" d="M747.7,396.9l28.2-0.5c1.2,0,2.4-0.7,2.9-1.8l11-22l-6-3l-10.1,20.1l-26.1,0.5L747.7,396.9z"/>
				</g>
				<g>
					<polygon class="st7" points="787.9,352.2 788.8,370 797,369.6 795.8,352.4 795.5,347.6 					"/>
				</g>
				<g>
					<path class="st7" d="M794.2,357.8c0,0-1.9,4.6-5.8,5.7l-0.3-6L794.2,357.8z"/>
				</g>
				<g>
					<path class="st7" d="M785.2,362.7c-0.3-0.1-1-0.2-1.3-0.3c-3.1-0.8-6.1-5.9-6-8.8c0.1-3.5,0.5-5.2,0.3-7.6
						c-0.3-3.2,2.9-5.8,6.1-5.6l6.6,0.3c2.5,0.1,4.4,2.2,4.3,4.6l-0.4,10.6C794.6,359.8,789,363.3,785.2,362.7z"/>
				</g>
				<g>
					<path class="st7" d="M798.8,365.1c-0.9-0.6-2-0.9-3.1-0.8l-3.6,0.4c-1.8,0.2-3.4,0.8-4.7,1.8
						C791.1,367.7,795.6,367.3,798.8,365.1z"/>
				</g>
				<g>
					<path class="st3" d="M804.4,372.1c-0.2-2.9-2.7-6.7-5.8-7.1c-5.3,0.7-10,1-11.8,1.5c-3.1,2.1-4.9,5.8-4.4,9.8l0.5,32.9
						c9.9,7,28,4.2,28,4.2C810.8,399.1,804.7,377.7,804.4,372.1z"/>
				</g>
				<g>
					<path class="st3" d="M767.5,396.7l23,0.2c1.7,0,3.1-1.2,3.3-2.9l3.8-25.3l-6.6-1l-3.4,22.4l-20.1-0.2L767.5,396.7z"/>
				</g>
				<g>
					<path class="st3" d="M787.7,366.3c1.5-0.4,4.2-0.4,8.4-1c-2.4,5.5-8.7,10.1-10.6,16.6C784.6,380.9,784.6,368.4,787.7,366.3z"/>
				</g>
				<g>
					<path class="st11" d="M788,367.3c0.3-0.3,1.2-0.9,1.2-1.3c0.7-0.1,0.6,0.2,1.5,0.1c-2.6,2.4-1.1,6.3-2.1,9.9
						c-1.3,1.8-2.4,3.8-3,5.9c-0.5-0.6-0.8-4.7-0.3-8.6C785.3,373,785.9,369.7,788,367.3z"/>
				</g>
				<g>
					<path class="st11" d="M787.7,367.9c0.3,0.4,1.7,0.6,2.1,0.3c0.4-0.3,0.8-1.9,0.8-1.9l-3.2-0.5
						C787.5,365.9,787.4,367.5,787.7,367.9z"/>
				</g>
				<g>
					<path class="st5" d="M782,346.9c-12.7-2.8-3.6-10.8-3.6-10.8s0.3,3,2.7,2c4.7-1.9,14.9-3.1,17.7,3.1c2.2,4.8-1.9,15.2-2.7,18
						c-1.3-0.8-0.2-13.1-5.4-12.6C788,346.8,784.8,347.5,782,346.9z"/>
				</g>
				<g>
					<path class="st5" d="M783.9,360.1c-2.6-0.1-0.9-4.4,0.1-4.3C785,355.8,786.5,360.2,783.9,360.1z"/>
				</g>
				<g>
					<polygon class="st2" points="792.3,369.4 798.7,365.1 796.5,362.7 788.9,366.1 					"/>
				</g>
				<g>
					<polygon class="st2" points="786.9,367.7 787.3,366.3 788.5,365 789,366.1 					"/>
				</g>
				<g>
					<path class="st5" d="M792.7,388.9c0-0.8-0.6-1.4-1.4-1.4h-51.4c-1.1,0-2,0.6-2,1.4c0,0.8,0.9,1.4,2,1.4h51.4
						C792.1,390.3,792.7,389.7,792.7,388.9L792.7,388.9z"/>
				</g>
				<g>
					<path class="st2" d="M794.7,388.9c0,0.8-0.7,1.4-1.5,1.4h-19.5c-0.8,0-1.5-0.6-1.5-1.4c0-0.8,0.7-1.4,1.5-1.4h19.5
						C794.1,387.5,794.7,388.1,794.7,388.9z"/>
				</g>
				<g>
					<path class="st2" d="M738,360.9v25.9c0,1.2,0.9,2.1,2.1,2.1h34.2c1.2,0,2.1-0.9,2.1-2.1v-25.9c0-1.2-0.9-2.1-2.1-2.1h-34.2
						C739,358.8,738,359.7,738,360.9z"/>
				</g>
				<g>
					<path class="st5" d="M736.4,360.9v25.9c0,1.2,0.9,2.1,2.1,2.1h34.2c1.2,0,2.1-0.9,2.1-2.1v-25.9c0-1.2-0.9-2.1-2.1-2.1h-34.2
						C737.4,358.8,736.4,359.7,736.4,360.9z"/>
				</g>
				<g>
					<path class="st2" d="M761.3,373.8L761.3,373.8c0-1.2-1-2.2-2.2-2.2h-6.9c-1.2,0-2.2,1-2.2,2.2l0,0c0,1.2,1,2.2,2.2,2.2h6.9
						C760.3,376.1,761.3,375.1,761.3,373.8z"/>
				</g>
				<g>
					<path class="st7" d="M769.7,393.4c0.2-1.4-0.1-2.8-0.7-3.9l-8.6-1.5c-1,0.8-1.7,2-2,3.4c-0.5,3.1,1.6,6.1,4.7,6.6
						C766.2,398.6,769.1,396.5,769.7,393.4z"/>
				</g>
				<g>
					<path class="st7" d="M751.4,391.8c0.1-1.4-0.3-2.7-1-3.8l-8.7-0.7c-0.9,0.9-1.6,2.2-1.7,3.6c-0.3,3.2,2.1,5.9,5.3,6.2
						C748.4,397.3,751.2,394.9,751.4,391.8z"/>
				</g>
			</g>
			<g>
				<g>
					<g>
						<g>
							<g>
								<path class="st6" d="M684.6,189.7c0.9-1.4-0.3-3.7,0.5-6.4c2.4-8.2-0.4-11.8-0.4-11.8c0-3-2.5-5.7-6.3-7.1
									c-1.8-0.7-3.8-1-6-1.1c-3.3,0-6.3,0.8-8.6,2.2c-2.4,1.4-4.2,3.5-4,5.8c0.1,1.6,1.9,3.8,0.1,6.5c-4.4,6.8-2.5,10.7-0.2,11.9
									c2.1,1.1,4.6,1.2,5.9,1.9C672,195.3,681.2,194.6,684.6,189.7z"/>
							</g>
						</g>
					</g>
				</g>
				<g>
					<g>
						<g>
							<path class="st7" d="M704.8,219.9c1.5-0.2,3-0.4,4.6-0.8c1.2-0.3,1.9-1.4,1.6-2.6c-0.3-1.2-1.4-1.9-2.6-1.6
								c-7.4,1.7-13.5,1-18-2.2c-7-4.8-8.2-13.7-8.2-13.8c-0.2-1.2-1.3-2-2.4-1.9c-1.2,0.2-2,1.2-1.9,2.4c0.1,0.4,1.5,10.9,10,16.8
								C692.5,219.4,698.2,220.6,704.8,219.9z"/>
						</g>
					</g>
				</g>
				<g>
					<g>
						<g>
							<path class="st5" d="M683.3,202.2c0.4,0,0.8,0,1.2,0.1c-0.7-2.1-1-3.6-1-3.6c-0.2-1.7-1.7-3-3.4-3c-0.1,0-0.3,0-0.4,0
								c-1.9,0.2-3.2,2-3,3.8c0,0.2,0.4,2.7,1.7,6C679,203.7,680.7,202.2,683.3,202.2z"/>
						</g>
					</g>
				</g>
				<g>
					<g>
						<g>
							<g>
								<path class="st7" d="M679.2,200.3c1.1-0.6,2-2.2,0.7-3.8c-1.3-1.5-3.3-2.4-5.5-2.4l-0.6,0c-1.9-0.1-3.6,0.8-4.8,2.1
									C669.9,199.1,676.2,201.5,679.2,200.3z"/>
							</g>
						</g>
					</g>
				</g>
				<g>
					<g>
						<g>
							<g>
								<path class="st7" d="M675.5,189.8l0,2.4l0.1,4.6l-3.5,0.1L672,191l0-2.3C673,189.4,674.2,189.8,675.5,189.8z"/>
							</g>
						</g>
					</g>
				</g>
				<g>
					<g>
						<g>
							<g>
								<g>
									<path class="st7" d="M675.5,190.3l0,2.4c-1.2-0.2-2.8-0.7-3.6-1.7l0-1.8C673,190,674.2,190.4,675.5,190.3z"/>
								</g>
							</g>
						</g>
					</g>
				</g>
				<g>
					<g>
						<g>
							<g>
								<path class="st7" d="M674.6,191.6L674.6,191.6c-3.3,0-6.3-1.7-8.1-4.2c-1.3-1.7-2-3.9-2-6.2l0-4c0-2.9,1.3-5.5,3.3-7.4
									c1.9-1.7,4.3-2.8,7.1-2.7l0,0c1.8,0,3.5,0.5,5,1.3c3.1,1.8,5.2,5.2,5.2,9l0,4c0,3.7-2,6.9-5,8.7
									C678.4,191.1,676.6,191.6,674.6,191.6z"/>
							</g>
						</g>
					</g>
				</g>
				<g>
					<g>
						<g>
							<g>
								<path class="st3" d="M685.6,224.9c1.2,5.2-5.3,10.4-10.5,11.6c-5.2,1.2-10.4-2.1-11.6-7.3c-1.2-5.2,2.1-10.4,7.3-11.6
									C676,216.4,684.4,219.7,685.6,224.9z"/>
							</g>
						</g>
					</g>
				</g>
				<g>
					<g>
						<g>
							<g>
								<path class="st5" d="M675.3,186.3c0.2,1.3,1.3,2.2,2.7,2.3c1.3,0,2.5-0.9,2.7-2.2L675.3,186.3z"/>
							</g>
						</g>
					</g>
				</g>
				<g>
					<g>
						<g>
							<g>
								<path class="st5" d="M684.9,202.7c0.7,1.8-1.2,4.1-3.1,4.3c-1.9,0.2-4.3-2.3-4.5-4.3c-0.2-1.9,2.7-6.2,3.8-4.6
									C682.1,199.7,684.4,201.1,684.9,202.7z"/>
							</g>
						</g>
					</g>
				</g>
				<g>
					<g>
						<g>
							<g>
								<path class="st5" d="M669,196.2c-0.8,1-1.4,2.2-1.4,3.6c0,0,3.2,15.2-3.5,23.3c0,0,12,7.2,21.7,2.3c0-6.9-4.2-11.7-3.6-22.9
									c0.1-2.3-0.8-4.5-2.3-6C679.8,200.1,672.4,195.8,669,196.2z"/>
							</g>
						</g>
					</g>
				</g>
				<g>
					<g>
						<g>
							<g>
								<g>
									<path class="st6" d="M679.3,273.5c0.2,2.3-0.2,4.1-0.1,4.7c0.2,0.9,4.3,1.8,4.9,4.4c0.7,3.5,5.4,3.9,6.1,4.1
										c1.9,0.4,3.6-0.6,2.6-2.5c-1.2-2.2-2.4-2.6-3.9-5.2c-2.3-3.9-2.5-6.5-3.7-8.9c-0.2-0.4-1.3-1.9-3-1.6
										C680.6,268.6,679,270.7,679.3,273.5z"/>
								</g>
							</g>
						</g>
					</g>
				</g>
				<g>
					<g>
						<g>
							<g>
								<g>
									<path class="st7" d="M686.1,280.4c-1.3-1.9-3.5-8.1-3.2-9.6c0.4-1.8,3.8-2.5,4.3-1.1c0.8,2.5,0.6,7.2,3.5,11.6
										C690.6,282.6,687.6,282.6,686.1,280.4z"/>
								</g>
							</g>
						</g>
					</g>
				</g>
				<g>
					<g>
						<g>
							<g>
								<g>
									<path class="st6" d="M741.3,243.5c1.7-1.5,3.4-2.3,3.8-2.7c0.7-0.7-1.2-4.5,0.6-6.5c2.4-2.7-0.1-6.7-0.4-7.4
										c-0.9-1.8-2.7-2.6-3.6-0.6c-1,2.2-0.7,3.4-1.8,6.3c-1.7,4.2-3.7,5.9-4.9,8.3c-0.2,0.4-0.7,2.2,0.5,3.4
										C736.6,245.4,739.3,245.4,741.3,243.5z"/>
								</g>
							</g>
						</g>
					</g>
				</g>
				<g>
					<g>
						<g>
							<g>
								<g>
									<path class="st7" d="M742.8,233.9c-0.8,2.2-4.4,7.7-5.8,8.4c-1.6,0.8-4.3-1.5-3.4-2.8c1.5-2.2,5.4-4.7,7.2-9.8
										C741.8,229,743.7,231.4,742.8,233.9z"/>
								</g>
							</g>
						</g>
					</g>
				</g>
				<g>
					<g>
						<g>
							<path class="st3" d="M695.7,238.9l-0.2-0.1l-22.9-10.5c-2.2-1-4.7,0-5.7,2.1c-1,2.2,0,4.7,2.1,5.7c0,0,0,0,0,0l19.7,8.8
								l-7,24l6,2l10-27C698.5,242,697.6,239.8,695.7,238.9z"/>
						</g>
					</g>
				</g>
				<g>
					<g>
						<g>
							<path class="st7" d="M674.7,225.8c1.1,0,2.3-0.1,3.6-0.2c1.2-0.1,2.1-1.2,1.9-2.4c-0.1-1.2-1.2-2-2.4-1.9
								c-4,0.4-9.1,0.3-11-2.7c-2.9-4.7,2.5-15,4.7-18.2c0.7-1,0.4-2.3-0.6-3c-1-0.7-2.3-0.4-3,0.6c-1,1.5-9.5,15-4.7,22.9
								C665.1,224.1,669,225.8,674.7,225.8z"/>
						</g>
					</g>
				</g>
				<g>
					<g>
						<g>
							<g>
								<path class="st6" d="M663.4,178.4c0,0,7.3,2.6,11.8-0.6c4.5-3.2,6.6-8,4.6-10.9c-2-2.8-7.3-2.6-11.8,0.6
									C663.5,170.7,663.4,178.4,663.4,178.4z"/>
							</g>
						</g>
					</g>
				</g>
				<g>
					<g>
						<g>
							<path class="st3" d="M672.4,227.3c0,0,4,0.1,10,0.4c3,0.1,6.5,0.3,10.3,0.5c3.8,0.2,7.8,0.5,11.8,0.7l1.5,0.1l0.4,0l0.1,0
								l0.4,0l0.2,0l0.7,0.1l1.5,0.2l0.1,0l0.4,0.1l0,0l0.2,0l0.4,0.1l0.7,0.2c1.9,0.5,3.8,0.9,5.6,1.4c1.8,0.5,3.6,0.9,5.3,1.3
								c1.7,0.4,3.2,0.9,4.7,1.2c2.9,0.8,5.3,1.4,7,1.9c1.7,0.5,2.7,0.8,2.7,0.8l-1.2,5.4c0,0-1-0.2-2.7-0.4
								c-1.7-0.3-4.2-0.7-7.2-1.3c-1.5-0.3-3.1-0.6-4.8-0.9c-1.7-0.3-3.5-0.7-5.3-1c-1.8-0.4-3.8-0.8-5.7-1.1l-0.7-0.1l-0.4-0.1
								l-0.2,0l0,0c-0.1,0,0.6,0.1,0.3,0.1l0,0l-0.1,0l-1.5-0.2l-0.7-0.1l-0.2,0l0,0c-0.1,0,0.6,0.1,0.3,0l0,0l-0.1,0l-0.4,0
								l-1.5-0.1c-4-0.2-8-0.3-11.8-0.5c-3.8-0.2-7.3-0.4-10.3-0.5c-6-0.3-10-0.6-10-0.6L672.4,227.3z"/>
						</g>
					</g>
				</g>
				<g>
					<g>
						<g>
							<path class="st6" d="M673.7,229.8c0-0.7,0.6-1.3,1.3-1.3h47.2c1,0,1.8,0.6,1.8,1.3c0,0.7-0.8,1.3-1.8,1.3H675
								C674.3,231.1,673.7,230.5,673.7,229.8L673.7,229.8z"/>
						</g>
					</g>
				</g>
				<g>
					<g>
						<g>
							<path class="st2" d="M671.9,229.8c0,0.7,0.6,1.3,1.4,1.3h17.9c0.8,0,1.4-0.6,1.4-1.3c0-0.7-0.6-1.3-1.4-1.3h-17.9
								C672.5,228.5,671.9,229.1,671.9,229.8z"/>
						</g>
					</g>
				</g>
				<g>
					<g>
						<g>
							<path class="st2" d="M723.9,204.1v23.8c0,1.1-0.9,1.9-1.9,1.9h-31.4c-1.1,0-1.9-0.9-1.9-1.9v-23.8c0-1.1,0.9-1.9,1.9-1.9H722
								C723.1,202.2,723.9,203.1,723.9,204.1z"/>
						</g>
					</g>
				</g>
				<g>
					<g>
						<g>
							<path class="st6" d="M725.4,204.1v23.8c0,1.1-0.9,1.9-1.9,1.9h-31.4c-1.1,0-1.9-0.9-1.9-1.9v-23.8c0-1.1,0.9-1.9,1.9-1.9
								h31.4C724.5,202.2,725.4,203.1,725.4,204.1z"/>
						</g>
					</g>
				</g>
				<g>
					<g>
						<g>
							<path class="st2" d="M702.6,216L702.6,216c0-1.1,0.9-2,2-2h6.3c1.1,0,2,0.9,2,2l0,0c0,1.1-0.9,2-2,2h-6.3
								C703.5,218,702.6,217.1,702.6,216z"/>
						</g>
					</g>
				</g>
				<g>
					<g>
						<g>
							<path class="st5" d="M665.4,201.8c2.6,0,4.2,1.5,4.9,3.3c0.8-1.6,1.6-3.1,2.3-4.1c1-1.6,0.6-3.7-1-4.8
								c-0.6-0.4-1.2-0.6-1.9-0.6c-1.2,0-2.2,0.6-2.9,1.6c-0.5,0.8-1.5,2.4-2.7,4.7C664.5,201.8,664.9,201.8,665.4,201.8z"/>
						</g>
					</g>
				</g>
				<g>
					<g>
						<g>
							<g>
								<path class="st7" d="M687.6,221.7c0.5,1.2,0.6,2.4,0.2,3.6l-7.3,3.2c-1.1-0.5-2-1.4-2.5-2.6c-1.2-2.6,0-5.7,2.7-6.9
									C683.4,217.9,686.4,219.1,687.6,221.7z"/>
							</g>
						</g>
					</g>
				</g>
			</g>
		</g>
		<g>
			<g>
				<path class="st3" d="M669.5,381.2c32.5,35.5,8.3,90.4,8.3,90.4c0-30.6-23-35.2-23-35.2h-19h-19c0,0-23,4.6-23,35.2
					c0,0-24.1-54.9,8.3-90.4H669.5z"/>
			</g>
			<g>
				<path class="st7" d="M616.7,436.5h19V264.3C635.7,264.3,572,327,616.7,436.5z"/>
			</g>
			<g>
				<path class="st12" d="M635.7,264.3v172.2h19C699.5,327,635.7,264.3,635.7,264.3z"/>
			</g>
			<g>
				<path class="st3" d="M635.7,264.3c0,0-13.3,13.1-23.5,37.8h47C649.1,277.4,635.7,264.3,635.7,264.3z"/>
			</g>
			<g>
				
					<ellipse transform="matrix(2.497689e-02 -0.9997 0.9997 2.497689e-02 263.7813 982.8213)" class="st2" cx="635.7" cy="356.2" rx="17.4" ry="17.4"/>
				<path class="st3" d="M635.7,377.1c-11.5,0-20.9-9.4-20.9-20.9c0-11.5,9.4-20.9,20.9-20.9s20.9,9.4,20.9,20.9
					C656.7,367.7,647.3,377.1,635.7,377.1z M635.7,342.3c-7.7,0-13.9,6.2-13.9,13.9c0,7.7,6.2,13.9,13.9,13.9
					c7.7,0,13.9-6.2,13.9-13.9C649.7,348.5,643.4,342.3,635.7,342.3z"/>
			</g>
		</g>
		<g>
			<g>
				<g>
					<path class="st13" d="M550.9,292.7c-1-9.4,0.8-14.7,0.8-14.7s1.8,5.3,0.8,14.7c-0.1,1.1-0.5,1.8-0.8,1.8l0,0
						C551.3,294.6,551,293.8,550.9,292.7z"/>
				</g>
				<g>
					<g>
						<polygon class="st6" points="551.7,319 544.8,325.9 544.8,313.3 551.7,306.4 						"/>
					</g>
					<g>
						<polygon class="st6" points="551.7,319 558.7,325.9 558.7,313.3 551.8,306.4 						"/>
					</g>
				</g>
				<g>
					<path class="st12" d="M554.7,292.7c3.5,16.8-3,26.3-3,26.3s-6.4-9.5-3-26.3c0.4-2,1.6-3.3,3-3.3l0,0
						C553.1,289.4,554.3,290.8,554.7,292.7z"/>
				</g>
				<g>
					<g>
						<rect x="548.6" y="336" class="st5" width="1.4" height="15.9"/>
					</g>
					<g>
						<rect x="553.5" y="329.5" class="st5" width="1.4" height="13.6"/>
					</g>
				</g>
			</g>
			<g>
				<g>
					<path class="st13" d="M581.1,317.1c-1-9.4,0.8-14.7,0.8-14.7s1.8,5.3,0.8,14.7c-0.1,1.1-0.5,1.8-0.8,1.8l0,0
						C581.6,319,581.2,318.2,581.1,317.1z"/>
				</g>
				<g>
					<g>
						<polygon class="st6" points="582,343.4 575,350.3 575,337.7 581.9,330.8 						"/>
					</g>
					<g>
						<polygon class="st6" points="582,343.4 588.9,350.3 588.9,337.7 582,330.8 						"/>
					</g>
				</g>
				<g>
					<path class="st12" d="M584.9,317.1c3.5,16.8-3,26.3-3,26.3s-6.4-9.5-3-26.3c0.4-2,1.6-3.3,3-3.3l0,0
						C583.3,313.8,584.5,315.2,584.9,317.1z"/>
				</g>
				<g>
					<g>
						<rect x="579" y="363.9" class="st5" width="1.4" height="11.7"/>
					</g>
					<g>
						<rect x="583.6" y="354.1" class="st5" width="1.4" height="12.8"/>
					</g>
				</g>
			</g>
		</g>
		<g>
			<g>
				<path class="st3" d="M653.2,213.1c0,22.9-18.6,41.5-41.5,41.5c-22.9,0-41.5-18.6-41.5-41.5c0-22.9,18.6-41.5,41.5-41.5
					C634.6,171.6,653.2,190.2,653.2,213.1z"/>
			</g>
			<g>
				<path class="st6" d="M642.8,213.1c0,17.2-13.9,31.1-31.1,31.1c-17.2,0-31.1-13.9-31.1-31.1c0-17.2,13.9-31.1,31.1-31.1
					C628.9,182,642.8,196,642.8,213.1z"/>
			</g>
			<g>
				<path class="st3" d="M632.5,213.1c0,11.5-9.3,20.7-20.7,20.7c-11.5,0-20.7-9.3-20.7-20.7c0-11.5,9.3-20.7,20.7-20.7
					C623.2,192.4,632.5,201.7,632.5,213.1z"/>
			</g>
			<g>
				<path class="st6" d="M622.1,213.1c0,5.7-4.6,10.4-10.4,10.4c-5.7,0-10.4-4.6-10.4-10.4c0-5.7,4.6-10.4,10.4-10.4
					C617.4,202.8,622.1,207.4,622.1,213.1z"/>
			</g>
		</g>
	</g>
</g>
</svg>
