<?xml version="1.0" encoding="utf-8"?>
<!-- Generator: Adobe Illustrator 22.1.0, SVG Export Plug-In . SVG Version: 6.00 Build 0)  -->
<svg version="1.1" id="www.mcool.com_6_" xmlns="http://www.w3.org/2000/svg" xmlns:xlink="http://www.w3.org/1999/xlink" x="0px"
	 y="0px" viewBox="0 0 967.2 498" style="enable-background:new 0 0 967.2 498;" xml:space="preserve">
<style type="text/css">
	.st0{display:none;fill:url(#SVGID_1_);}
	.st1{display:none;}
	.st2{display:inline;opacity:0.7;fill:url(#SVGID_2_);}
	.st3{display:inline;opacity:0.7;fill:url(#SVGID_3_);}
	.st4{display:inline;opacity:0.7;fill:url(#SVGID_4_);}
	.st5{fill:url(#SVGID_5_);}
	.st6{display:none;opacity:0.48;}
	.st7{display:inline;fill:none;stroke:#FFFFFF;stroke-width:0.7275;stroke-miterlimit:10;}
	.st8{fill:url(#SVGID_6_);}
</style>
<linearGradient id="SVGID_1_" gradientUnits="userSpaceOnUse" x1="485.693" y1="-14.4768" x2="482.3596" y2="432.1898">
	<stop  offset="0" style="stop-color:#CB88D2"/>
	<stop  offset="0.2669" style="stop-color:#C887D3"/>
	<stop  offset="0.4783" style="stop-color:#BE85D7"/>
	<stop  offset="0.6705" style="stop-color:#AD81DD"/>
	<stop  offset="0.8502" style="stop-color:#967BE6"/>
	<stop  offset="1" style="stop-color:#7C75F0"/>
</linearGradient>
<path class="st0" d="M745.3,167.6c7.7,24.1,15.2,50.8,19.2,77.7c2,13.4,3.1,26.9,2.9,40.1c-1.1,36.3-9,72-40.6,97.5
	c-98.9,78.2-245.2,134.4-373.7,91.9c-14.2-4.3-26.5-10.2-37.3-17.5c-10.8-7.3-20.2-15.8-28.4-25.3c-14.3-25.4-32-51.9-48-79
	c-8-13.6-15.5-27.3-22-41.2C185,257,196.9,192.4,258.2,153.2c79.1-51,134.4-108.9,203.6-163.3c49.4-39.1,116.6-44.2,176.8-26.7
	c17.7,5.4,34.7,13.1,50.6,23.3C701-6.2,710.3,2.4,717.5,12c7.2,9.6,12.3,20.1,15.9,31.1c7.1,21.7,9.1,45.5,10.1,69.8
	C744.5,130.2,745,148.5,745.3,167.6z"/>
<image style="display:none;overflow:visible;" width="4076" height="2100" id="http:_x2F__x2F_www.lfx20.com_9_" xlink:href="8753027D.png"  transform="matrix(0.24 0 0 0.24 -7.1806 -2.8465)">
</image>
<g id="www.mcool.com">
	<g class="st1">
		
			<linearGradient id="SVGID_2_" gradientUnits="userSpaceOnUse" x1="133.2305" y1="50.1637" x2="79.2305" y2="308.8304" gradientTransform="matrix(0.9818 -0.1897 0.1897 0.9818 339.118 648.6547)">
			<stop  offset="0" style="stop-color:#EB375A"/>
			<stop  offset="9.097945e-02" style="stop-color:#E2385B"/>
			<stop  offset="0.2382" style="stop-color:#CA3B5C"/>
			<stop  offset="0.4233" style="stop-color:#A3405F"/>
			<stop  offset="0.639" style="stop-color:#6D4663"/>
			<stop  offset="0.8776" style="stop-color:#294E67"/>
			<stop  offset="1" style="stop-color:#03536A"/>
		</linearGradient>
		<path class="st2" d="M673,192.8c-6-20.2,10.3-52.1-2.4-70.4c-12.6-18.3-48.3-14.3-65.1-27.1c-4.1-3.1-7.5-7.4-10.7-12.3
			c-1-2.4-2.3-4.6-3.8-6.4c-8.3-14.9-15.4-32.1-28.8-36.9c-20.4-7.2-47,16.9-68.6,16.3c-21.4-0.5-46.8-25.9-67.7-19.6
			c-10.6,3.2-17.7,14.3-24.6,25.9c-14.6,8-26.7,21.1-38.3,34.5c-18.1,4.4-39.8,4.6-49.3,17c-1.3,1.6-2.3,3.4-3.1,5.3
			c-7.2,1.8-13.1,4.8-16.7,10.1c-6.2,9.1-3.5,22.2,1,36.1c-8.3,9.6-15,20.3-18.2,32.9c-2.3,9-2.6,18.1-1.6,27.1
			c-3.8,5.4-6.5,11.1-6.6,17.2c-0.1,5.4,1.7,10.5,4.7,15.6c-7.8,9.7-13.5,19.5-11.6,29.4c2.9,15.2,22.3,23.5,40.1,32.2
			c1,4.6,1.9,9.2,2.9,13.8c-2.1,14.5-4.3,29.3,2.9,39.7c4.3,6.2,11.2,9.8,19.1,12.5c1.1,1.2,2.2,2.4,3.4,3.6c2.7,2.6,5.6,5,8.7,7.1
			c1.4,11.3,4.3,20.9,11.8,26c9.4,6.4,23.1,3.3,37.5-1.4c7.9,14.5,14.9,30.6,27.9,35.1c17.9,6.3,40.5-11.4,60.3-15.5
			c10.7,9.1,21.6,16.3,32.5,14.2c2.9-0.6,5.6-1.8,8.1-3.5c12.2,6,24.4,11.4,35.4,8.1c20.2-6,27.6-40.9,45.9-53.6
			c18.3-12.6,53.5-7.2,66.3-23.9c13.3-17.4-1.5-50.1,5.6-70.3c7.2-20.4,39-36.7,39.6-58.4C710.2,231.6,679.3,213.8,673,192.8z"/>
		
			<linearGradient id="SVGID_3_" gradientUnits="userSpaceOnUse" x1="-78.6777" y1="5.9252" x2="-132.6777" y2="264.5918" gradientTransform="matrix(0.9881 0.1536 -0.1536 0.9881 492.3508 464.0417)">
			<stop  offset="0" style="stop-color:#EB375A"/>
			<stop  offset="9.097945e-02" style="stop-color:#E2385B"/>
			<stop  offset="0.2382" style="stop-color:#CA3B5C"/>
			<stop  offset="0.4233" style="stop-color:#A3405F"/>
			<stop  offset="0.639" style="stop-color:#6D4663"/>
			<stop  offset="0.8776" style="stop-color:#294E67"/>
			<stop  offset="1" style="stop-color:#03536A"/>
		</linearGradient>
		<path class="st3" d="M668.7,248.7c1-18.7,24.2-40.4,19.1-59.4c-5.1-19-35.9-26.4-46.1-42.1c-2.5-3.8-4-8.5-5.2-13.5
			c-0.1-2.3-0.5-4.5-1.3-6.5c-2.5-14.9-3.2-31.4-13-39.3c-14.9-12.1-44.2,0-62-6.9c-17.7-6.9-31.2-35.6-50.5-36.6
			c-9.8-0.5-19,6.6-28.3,14.2c-14.6,2.3-28.5,9.6-42.2,17.3c-16.4-1.8-34.6-8.1-46.2-0.6c-1.5,1-2.9,2.2-4.1,3.5
			c-6.5-0.6-12.4,0.1-16.9,3.4c-7.9,5.8-9.5,17.5-10,30.3c-9.8,5.5-18.6,12.4-25,21.9c-4.6,6.8-7.6,14.3-9.4,22.1
			c-4.8,3.4-8.7,7.3-10.7,12.3c-1.7,4.4-1.7,9.3-0.8,14.4c-9.4,5.7-17.1,12.2-18.5,21c-2.1,13.5,11.5,26.3,23.8,38.8
			c-0.6,4.1-1.2,8.2-1.7,12.4c-6.1,11.5-12.3,23.1-9.5,33.9c1.7,6.4,6.4,11.6,12.2,16.1c0.5,1.3,1.1,2.7,1.7,4
			c1.5,3,3.2,5.8,5.1,8.5c-2.2,9.8-2.6,18.7,2.1,25.2c6,8.1,18.3,9.6,31.6,10.1c2.3,14.4,3.3,29.9,12.7,37.6
			c13,10.6,37.1,2.6,54.9,5.2c6.2,10.8,13.1,20,22.8,21.5c2.6,0.4,5.2,0.2,7.8-0.4c8.4,8.6,16.9,16.8,27,17.3
			c18.7,1,35.2-25.8,54.3-30.9c19-5.1,46.7,10.1,62.4-0.1c16.3-10.5,13.8-42.2,25.7-56.9c12.1-14.9,43.5-18.9,50.4-36.8
			C688.1,292.1,667.7,268,668.7,248.7z"/>
		
			<linearGradient id="SVGID_4_" gradientUnits="userSpaceOnUse" x1="1433.6519" y1="321.6434" x2="1379.6519" y2="580.3101" gradientTransform="matrix(-0.776 -0.6308 0.6308 -0.776 1254.6923 1508.4608)">
			<stop  offset="0" style="stop-color:#EB375A"/>
			<stop  offset="0.519" style="stop-color:#6F5161"/>
			<stop  offset="1" style="stop-color:#006868"/>
		</linearGradient>
		<path class="st4" d="M369.3,156.3c-8.6,13.1-34.6,19-39,35c-4.4,15.9,14.9,34.3,15.6,50c0.2,3.8-0.7,7.8-1.9,12
			c-0.9,1.7-1.5,3.5-1.8,5.2c-4.5,11.9-11,24.1-7.2,34c5.7,15,32,18.7,42,31.3c9.9,12.5,7.6,39,21.1,48c6.9,4.5,16.6,3.3,26.5,1.6
			c11.6,4.5,24.7,5.1,37.9,5.3c11.1,8.2,21.6,20.5,33.2,20c1.5-0.1,3-0.3,4.5-0.8c4.5,3.2,9,5.2,13.7,4.7
			c8.2-0.8,14.3-8.6,20.1-17.8c9.5,0.1,18.7-1.1,27.4-5.3c6.3-3,11.5-7.2,16.2-12c4.9-0.4,9.4-1.6,12.9-4.4c3.1-2.5,5.2-6,6.6-10.1
			c9.3-0.2,17.6-1.6,22.3-7.4c7.2-8.9,2.8-23.9-0.8-38.2c2.2-2.7,4.3-5.5,6.5-8.2c9.3-5.7,18.7-11.6,21.2-20.6
			c1.5-5.4,0.3-11.1-2-16.8c0.2-1.2,0.3-2.4,0.4-3.6c0.2-2.8,0.2-5.6-0.1-8.3c5.7-6.2,9.8-12.5,9.2-19.1
			c-0.9-8.4-9.2-14.7-18.7-20.7c4.5-11.4,10.3-23.1,6.7-32.6c-5-13.2-25.8-17.6-37.6-27c0.1-10.5-1-20.1-7.4-25.3
			c-1.7-1.4-3.7-2.4-5.8-3c-2.4-9.8-5.2-19.3-12.3-24c-13.1-8.6-36.5,3.8-52.4-0.6C510.3,93,496.6,70.3,480.9,71
			c-16.2,0.7-27.8,24.7-42.7,30.3c-15,5.7-39.6-4.7-52.1,5.3C373.6,116.6,378.2,142.8,369.3,156.3z"/>
	</g>
	<g>
		<linearGradient id="SVGID_5_" gradientUnits="userSpaceOnUse" x1="309.0195" y1="247.7603" x2="636.7689" y2="247.7603">
			<stop  offset="0" style="stop-color:#CB88D2"/>
			<stop  offset="0.2669" style="stop-color:#C887D3"/>
			<stop  offset="0.4783" style="stop-color:#BE85D7"/>
			<stop  offset="0.6705" style="stop-color:#AD81DD"/>
			<stop  offset="0.8502" style="stop-color:#967BE6"/>
			<stop  offset="1" style="stop-color:#7C75F0"/>
		</linearGradient>
		<path class="st5" d="M582,411.6l-273-54.8l54.8-273l273,54.8L582,411.6z M321,348.9l253,50.8l50.8-253l-253-50.8L321,348.9z"/>
	</g>
	<g class="st6">
		<path class="st7" d="M701.9,244.5c0,28.4-53.1,46-63.3,70.6c-10.6,25.6,14.1,75.5-5.2,94.7c-19.3,19.3-69.2-5.4-94.7,5.2
			c-24.7,10.2-42.3,63.3-70.6,63.3s-46-53.1-70.6-63.3c-25.6-10.6-75.5,14.1-94.7-5.2c-19.3-19.3,5.4-69.2-5.2-94.7
			c-10.2-24.7-63.3-42.3-63.3-70.6c0-28.4,53.1-46,63.3-70.6c10.6-25.6-14.1-75.5,5.2-94.7c19.3-19.3,69.2,5.4,94.7-5.2
			C422,63.8,439.6,10.7,468,10.7s46,53.1,70.6,63.3c25.6,10.6,75.5-14.1,94.7,5.2c19.3,19.3-5.4,69.2,5.2,94.7
			C648.8,198.6,701.9,216.2,701.9,244.5z"/>
		<path class="st7" d="M666.7,338.5c-16.3,34.5-56.3,49.2-85.6,69.4c-30.2,20.8-58.5,52.7-95.1,55.7c-35.4,2.9-68.4-23.2-102.9-39.5
			c-34.5-16.3-75.6-25.2-95.8-54.5c-20.8-30.2-14.2-72.3-17.3-108.9c-2.9-35.4-17-75.7-0.7-110.2c16.3-34.5,56.3-49.2,85.6-69.4
			c30.2-20.8,58.5-52.7,95.1-55.7c35.4-2.9,68.4,23.2,102.9,39.5c34.5,16.3,75.6,25.2,95.8,54.5c20.8,30.2,14.2,72.3,17.3,108.9
			C668.9,263.7,683,304,666.7,338.5z"/>
		<path class="st7" d="M670.6,278.3c-3.4,20.4-35,31.2-44.1,48.6c-9.4,18.1-0.2,50-14.5,64c-14.4,14.1-46.3,4.4-64.3,13.4
			c-17.8,8.9-29.2,40.3-49.3,43.3c-19.4,2.9-39.4-23.6-59.9-27c-20.4-3.4-47.9,15.2-65.4,6.1c-18.1-9.4-18.6-42.8-32.6-57
			c-14.1-14.4-47.4-15.5-56.4-33.5c-8.9-17.8,10.1-45.1,7.1-65.2c-2.9-19.4-29.3-39.9-25.9-60.3c3.4-20.4,35-31.2,44.1-48.6
			c9.4-18.1,0.2-50,14.5-64c14.4-14.1,46.3-4.4,64.3-13.4c17.8-8.9,29.2-40.3,49.3-43.3c19.4-2.9,39.4,23.6,59.9,27
			c20.4,3.4,47.9-15.2,65.4-6.1c18.1,9.4,18.6,42.8,32.6,57c14.1,14.4,47.4,15.5,56.4,33.5c8.9,17.8-10.1,45.1-7.1,65.2
			C647.6,237.4,674,257.9,670.6,278.3z"/>
		<path class="st7" d="M634.1,323.4c-8,16.8-37.8,18.2-49.9,31c-12.5,13.3-12.5,43-28.2,51.6c-15.8,8.6-40.9-7.6-58.6-4.3
			c-17.5,3.3-35,27.6-53.1,25.2c-17.4-2.3-28.2-30-44.9-37.9c-16.8-8-45,1.3-57.8-10.8c-13.3-12.5-5.5-41.4-14-57.1
			c-8.6-15.8-37-25-40.4-42.7c-3.3-17.5,19.8-36.4,22.1-54.4c2.3-17.4-15.4-41.5-7.5-58.3c8-16.8,37.8-18.2,49.9-31
			c12.5-13.3,12.5-43,28.2-51.6c15.8-8.6,40.9,7.6,58.6,4.3c17.5-3.3,35-27.6,53.1-25.2c17.4,2.3,28.2,30,44.9,37.9
			c16.8,8,45-1.3,57.8,10.8c13.3,12.5,5.5,41.4,14,57.1c8.6,15.8,37,25,40.4,42.7c3.3,17.5-19.8,36.4-22.1,54.4
			C624.4,282.6,642.1,306.6,634.1,323.4z"/>
		<path class="st7" d="M714,150.9c9.9,22.6-14.6,53.9-12.3,77.2c2.4,24.1,32.3,50,27.3,73.2c-5.1,23.4-43.3,34.5-55.3,55.2
			c-12,20.5-2.8,59.2-20.9,75.3c-17.5,15.6-54.7,2.2-77.2,12.1c-22.6,9.9-37.9,46.3-61.2,48.7C490.2,495,468,462,444.8,457
			c-23.4-5.1-57.4,15.4-78.1,3.4c-20.5-12-19.3-51.5-35.4-69.6c-15.6-17.5-55.2-20.6-65.1-43.2c-9.9-22.6,14.6-53.9,12.3-77.2
			c-2.4-24.1-32.3-50-27.3-73.2c5.1-23.4,43.3-34.5,55.3-55.2c12-20.5,2.8-59.2,20.9-75.3c17.5-15.6,54.7-2.2,77.2-12.1
			s37.9-46.3,61.2-48.7c24.1-2.4,46.4,30.5,69.6,35.6c23.4,5.1,57.4-15.4,78.1-3.4c20.5,12,19.3,51.5,35.4,69.6
			C664.5,125.1,704.1,128.3,714,150.9z"/>
		
			<ellipse transform="matrix(0.7071 -0.7071 0.7071 0.7071 -44.2244 408.019)" class="st7" cx="470.4" cy="257.4" rx="190.5" ry="190.5"/>
	</g>
	<g>
		
			<image style="overflow:visible;opacity:0.35;" width="2190" height="2145" xlink:href="8753027F.png"  transform="matrix(0.24 0 0 0.24 229.567 15.2611)">
		</image>
		<g>
			<linearGradient id="SVGID_6_" gradientUnits="userSpaceOnUse" x1="498.2457" y1="126.3653" x2="444.2457" y2="385.032">
				<stop  offset="0" style="stop-color:#CB88D2"/>
				<stop  offset="0.1431" style="stop-color:#C887D3"/>
				<stop  offset="0.2564" style="stop-color:#BE85D7"/>
				<stop  offset="0.3595" style="stop-color:#AD81DD"/>
				<stop  offset="0.4559" style="stop-color:#967CE6"/>
				<stop  offset="0.5306" style="stop-color:#7E76EF"/>
				<stop  offset="1" style="stop-color:#7C75F0"/>
			</linearGradient>
			<path class="st8" d="M492.2,155.2L492.2,155.2l-101-32l0,0l-78.7-24.9l81.3,348.6l278.1-234.7L492.2,155.2z M328.2,115.2
				l62.2,19.7l0,0l102.8,32.6l0,0h0l155.4,49.3L400.8,426.1L328.2,115.2z"/>
		</g>
	</g>
</g>
</svg>
